<svg width="962" height="612" xmlns="http://www.w3.org/2000/svg" xmlns:xlink="http://www.w3.org/1999/xlink" overflow="hidden"><defs><clipPath id="clip0"><rect x="192" y="72" width="962" height="612"/></clipPath></defs><g clip-path="url(#clip0)" transform="translate(-192 -72)"><path d="M196 176.497C196 120.994 240.994 76 296.497 76L687.75 76 687.75 76 898.5 76 938.503 76C994.006 76 1039 120.994 1039 176.497L1039 176.495 1145.06 162.237 1039 327.238 1039 578.474C1039 633.977 994.006 678.971 938.503 678.971L898.5 678.971 687.75 678.971 687.75 678.971 296.497 678.971C240.994 678.971 196 633.977 196 578.474L196 327.238 196 176.495 196 176.495Z" stroke="#0D0D0D" stroke-width="8" stroke-miterlimit="8" fill="#F5F1DA" fill-rule="evenodd"/></g></svg>